<svg width="18" height="18" viewBox="0 0 18 18" fill="none" xmlns="http://www.w3.org/2000/svg">
<g clip-path="url(#clip0)">
<path d="M7.23933 7.20326C7.22706 7.2151 7.21452 7.22652 7.20245 7.23867L7.02229 7.41975C7.00816 7.70403 7.10903 8.05125 7.31234 8.41037C7.56401 8.85486 7.94693 9.28062 8.41974 9.64163C8.89255 10.0026 9.40414 10.2599 9.89924 10.3855C10.2992 10.4871 10.6608 10.4929 10.9313 10.4044L11.0585 10.1829C11.067 10.168 11.0747 10.1529 11.0829 10.138L12.2987 11.5654L15.1555 11.0259L15.0166 10.2907L12.5867 10.7497L11.3591 9.30833C11.39 9.09016 11.391 8.87015 11.3633 8.65409L12.6048 9.19448L14.8101 8.20418L14.5036 7.52168L12.6001 8.37648L11.2163 7.77413C11.5766 7.76277 11.9291 7.59554 12.1649 7.28663C12.3412 7.05579 12.4237 6.78294 12.4193 6.51347C12.7326 6.49362 13.0361 6.34383 13.2411 6.07528C13.6167 5.58344 13.522 4.87778 13.0302 4.50224L12.9731 4.45863L12.519 5.05328L12.5762 5.0969C12.7401 5.22208 12.7717 5.4573 12.6465 5.62124C12.5213 5.78519 12.2861 5.81673 12.1221 5.69155L11.2549 5.02943C11.091 4.90425 11.0595 4.66903 11.1846 4.50508C11.3098 4.34114 11.545 4.3096 11.709 4.43478L11.7661 4.47839L12.2201 3.88374L12.163 3.84012C11.6712 3.46459 10.9655 3.55921 10.59 4.05105C10.3849 4.31959 10.3204 4.65182 10.3838 4.95931C10.1226 5.02604 9.8812 5.17751 9.70494 5.40836C9.4691 5.71724 9.4006 6.10131 9.48457 6.45193L8.53895 5.2757L8.86211 3.21425L8.12293 3.09834L7.74857 5.48662L8.59693 6.5419C8.38121 6.5721 8.16923 6.63102 7.96691 6.71831L6.2531 5.91378L6.05571 3.44872L5.30994 3.50846L5.54201 6.40649L7.23933 7.20326Z" fill="white" fill-opacity="0.9"/>
<path d="M12.7194 14.5311L12.942 13.8168L11.2464 13.2884L10.3835 11.3585L10.466 11.2149C10.2298 11.2119 9.97808 11.1775 9.7154 11.1108C9.12326 10.9605 8.5183 10.6581 7.96595 10.2364C7.4136 9.81461 6.96253 9.31069 6.66152 8.77904C6.528 8.5432 6.42845 8.30949 6.36337 8.08236L6.24651 8.19982L4.15749 7.87582L3.20111 6.37929L2.57066 6.78221L3.70897 8.56336L5.59394 8.85572L5.00981 9.44285C3.79326 10.6656 3.93027 12.6796 5.3012 13.7263C6.67214 14.7731 8.65106 14.3747 9.51015 12.879L9.92264 12.1609L10.7012 13.9022L12.7194 14.5311Z" fill="white" fill-opacity="0.9"/>
</g>
<defs>
<clipPath id="clip0">
<rect x="7.74902" width="12.7688" height="12.7688" rx="6.3844" transform="rotate(37.3629 7.74902 0)" fill="white"/>
</clipPath>
</defs>
</svg>
