<svg width="63" height="63" viewBox="0 0 63 63" fill="none" xmlns="http://www.w3.org/2000/svg">
<g opacity="0.6">
<path d="M50.7837 35.8509C51.4599 34.0836 51.8027 31.9987 51.8027 29.6543C51.8027 17.9076 43.1847 0 31.5 0C19.808 0 11.1973 17.921 11.1973 29.6543C11.1973 31.9987 11.5401 34.0836 12.2163 35.8509H50.7837ZM55.7544 43.9706H7.24562C2.6994 48.4663 0 54.7116 0 61.1543C0 62.1736 0.826383 63 1.8457 63H11.649L16.1191 61.2773H46.0195L51.351 63H61.1543C62.1736 63 63 62.1736 63 61.1543C63 54.7097 60.2991 48.465 55.7544 43.9706Z" fill="url(#paint0_linear)"/>
<path d="M58.8128 34.0789C58.4639 33.6173 57.9186 33.3457 57.3399 33.3457H43.1725C43.9039 31.8045 44.3284 30.1251 44.4064 28.3968C44.4302 27.8555 44.4154 27.8722 44.42 24.2538C43.1971 23.5582 41.9913 22.7279 40.7286 21.9134C38.0412 20.1797 35.189 18.5801 31.5001 18.5801C27.8111 18.5801 24.9589 20.1797 22.2715 21.9134C21.0106 22.7268 19.8032 23.5579 18.5801 24.2538C18.5847 27.8818 18.57 27.8584 18.5937 28.3968C18.6717 30.1251 19.0962 31.8045 19.8276 33.3457H5.66021C5.08152 33.3457 4.53618 33.6173 4.18734 34.0789C3.8385 34.5407 3.72653 35.1395 3.88489 35.6961L11.649 63H51.3511L59.1152 35.6963C59.2736 35.1396 59.1616 34.5409 58.8128 34.0789ZM31.5001 48.1113C30.4807 48.1113 29.6544 47.2849 29.6544 46.2656C29.6544 45.2463 30.4807 44.4199 31.5001 44.4199C32.5194 44.4199 33.3458 45.2463 33.3458 46.2656C33.3458 47.2849 32.5194 48.1113 31.5001 48.1113Z" fill="url(#paint1_linear)"/>
</g>
<defs>
<linearGradient id="paint0_linear" x1="31.5" y1="63" x2="31.5" y2="0" gradientUnits="userSpaceOnUse">
<stop stop-color="#FF7A00" stop-opacity="0.74"/>
<stop offset="1" stop-color="#FF932E"/>
</linearGradient>
<linearGradient id="paint1_linear" x1="31.5001" y1="63" x2="31.5001" y2="18.5801" gradientUnits="userSpaceOnUse">
<stop stop-color="#FFC2CC"/>
<stop offset="1" stop-color="#FFF2F4"/>
</linearGradient>
</defs>
</svg>
